<?xml version="1.0" standalone="no"?>
<!DOCTYPE svg PUBLIC "-//W3C//DTD SVG 20010904//EN"
 "http://www.w3.org/TR/2001/REC-SVG-20010904/DTD/svg10.dtd">
<svg version="1.0" xmlns="http://www.w3.org/2000/svg"
 width="736.000000pt" height="736.000000pt" viewBox="0 0 736.000000 736.000000"
 preserveAspectRatio="xMidYMid meet">

<g transform="translate(0.000000,736.000000) scale(0.100000,-0.100000)"
fill="#000000" stroke="none">
<path d="M386 7309 c-67 -16 -163 -69 -210 -116 -57 -56 -114 -169 -122 -244
-8 -73 18 -204 56 -279 42 -84 97 -148 216 -252 l106 -93 -44 -13 c-24 -7 -67
-11 -95 -9 -29 2 -53 0 -53 -4 0 -4 30 -28 67 -53 44 -29 127 -69 234 -110
227 -88 365 -155 422 -206 l48 -43 60 59 60 59 -43 39 c-68 61 -253 196 -378
276 -245 155 -386 275 -443 373 -41 69 -62 182 -48 249 18 82 53 132 113 162
28 14 66 26 84 26 l32 0 -18 -36 c-58 -112 53 -234 176 -194 123 39 166 149
105 267 -55 108 -203 173 -325 142z"/>
<path d="M1076 5931 c-32 -33 -55 -64 -52 -70 10 -15 6 -14 -50 11 -71 31
-173 29 -283 -7 -64 -20 -98 -26 -147 -23 -35 2 -64 1 -64 -1 0 -2 22 -29 50
-61 39 -45 105 -98 169 -137 2 -1 -19 -46 -45 -100 -48 -97 -49 -99 -49 -193
0 -112 17 -154 93 -228 86 -83 165 -101 257 -58 55 25 99 65 58 52 -35 -11
-101 14 -133 51 -70 79 -41 231 52 279 135 70 305 -83 369 -332 27 -103 36
-301 19 -398 -27 -152 -139 -410 -230 -531 -28 -37 -49 -70 -46 -72 9 -9 88
42 160 104 220 184 336 463 336 802 0 285 -84 552 -249 791 -49 72 -140 180
-150 180 -4 0 -33 -27 -65 -59z"/>
<path d="M156 5001 c-51 -21 -82 -44 -97 -74 -18 -32 1 -36 52 -11 47 24 54
25 100 14 118 -29 203 -126 258 -296 17 -55 36 -126 41 -159 17 -104 12 -321
-10 -451 -24 -140 -60 -297 -66 -291 -3 2 2 44 11 92 28 162 14 274 -47 363
-47 68 -146 105 -178 67 -11 -13 -9 -19 8 -38 33 -35 53 -95 59 -175 l6 -74
-26 17 c-15 9 -27 16 -28 14 0 -2 -1 -110 -3 -239 -2 -129 -7 -288 -11 -352
l-8 -117 24 -5 c64 -14 212 -27 218 -19 5 4 18 35 31 68 35 93 162 351 216
440 26 44 95 147 153 228 58 82 111 155 116 163 15 21 -11 34 -69 34 l-48 0 8
38 c10 46 10 86 -1 185 -6 57 -4 89 5 118 7 21 11 42 7 45 -13 13 -81 -21
-128 -64 -34 -33 -57 -66 -74 -107 l-24 -60 5 95 c8 117 -14 254 -53 337 -35
75 -113 153 -194 194 -83 42 -179 49 -253 20z m271 -1313 c-3 -8 -6 -5 -6 6
-1 11 2 17 5 13 3 -3 4 -12 1 -19z"/>
<path d="M1713 4695 c-83 -41 -118 -78 -194 -203 -29 -48 -68 -107 -86 -132
-53 -70 -192 -207 -246 -242 -42 -27 -47 -33 -31 -39 11 -3 24 -5 29 -4 6 2
33 9 60 16 69 17 179 73 248 126 42 32 76 73 126 151 95 146 105 157 154 181
52 25 107 27 149 5 l30 -16 -30 -18 c-51 -31 -78 -108 -58 -167 9 -28 63 -68
108 -81 184 -51 276 229 122 369 -67 60 -127 83 -224 87 -81 3 -88 2 -157 -33z"/>
<path d="M1108 3996 c-83 -35 -140 -78 -254 -192 -73 -73 -127 -140 -191 -236
-82 -123 -173 -284 -173 -305 0 -7 110 -73 122 -73 3 0 28 38 57 85 133 217
374 408 628 496 97 34 114 35 169 10 54 -25 84 -64 84 -112 0 -66 37 -63 70 6
39 81 -2 176 -105 240 -42 26 -59 30 -134 33 -84 4 -128 -6 -245 -53 -17 -8
-17 -7 -1 26 9 19 28 44 42 55 25 21 25 44 0 44 -7 -1 -38 -11 -69 -24z"/>
<path d="M2385 3913 c-54 -74 -84 -144 -96 -228 -10 -66 -8 -102 11 -257 36
-289 20 -574 -43 -780 l-15 -48 53 0 52 0 35 78 c47 103 153 415 179 527 13
57 22 143 26 235 6 159 -5 238 -51 349 -27 65 -92 171 -106 171 -5 0 -26 -21
-45 -47z"/>
<path d="M2942 3890 c-29 -17 -81 -59 -116 -93 -54 -54 -67 -73 -93 -147 -17
-47 -47 -164 -68 -260 -20 -96 -50 -218 -67 -270 -38 -118 -136 -350 -190
-448 -22 -40 -38 -74 -37 -75 2 -1 18 -7 34 -13 17 -7 37 -14 45 -18 11 -4 48
44 141 187 280 425 407 638 447 748 23 66 26 89 27 209 0 106 -4 143 -17 173
-21 45 -36 46 -106 7z"/>
<path d="M1874 3759 c-24 -47 -29 -162 -11 -236 9 -34 47 -126 85 -205 118
-243 155 -388 156 -610 1 -82 1 -148 1 -148 0 0 25 9 55 19 l55 18 17 99 c53
307 22 648 -77 844 -41 81 -125 177 -194 221 -57 37 -67 36 -87 -2z"/>
<path d="M3555 3731 c-78 -28 -134 -59 -213 -119 -87 -65 -140 -124 -311 -347
-296 -387 -493 -642 -523 -678 l-32 -38 31 -31 32 -31 30 24 c96 78 203 162
332 262 293 225 539 419 588 463 69 62 155 179 199 271 33 70 37 86 37 158 l0
80 -60 2 c-37 1 -79 -5 -110 -16z"/>
<path d="M1483 3465 c-11 -30 4 -110 31 -167 32 -67 90 -142 191 -248 137
-143 226 -322 259 -521 l6 -37 50 27 50 26 0 76 c0 254 -122 545 -300 712 -81
77 -140 113 -212 133 -66 17 -67 17 -75 -1z"/>
<path d="M213 2988 c7 -384 50 -690 118 -854 31 -73 45 -89 69 -74 11 7 11 35
1 167 -12 141 -11 175 4 294 28 222 84 417 165 579 l38 76 -65 33 c-36 17 -67
31 -68 29 -2 -2 -18 -45 -35 -96 -18 -51 -35 -90 -38 -88 -2 3 8 44 23 91 15
47 24 89 21 92 -6 7 -175 32 -215 33 l-24 0 6 -282z"/>
<path d="M980 3254 c0 -26 -43 -86 -130 -184 -186 -209 -295 -392 -357 -599
-33 -112 -43 -319 -20 -428 69 -321 338 -605 607 -638 37 -4 78 -1 125 9 172
40 272 157 283 332 5 90 -11 140 -63 202 -89 105 -250 102 -317 -6 -32 -52
-32 -144 0 -190 56 -77 166 -82 216 -10 24 33 31 14 17 -47 -23 -100 -122
-161 -261 -159 -124 2 -253 95 -341 246 -145 246 -128 579 40 836 129 196 300
279 474 228 140 -41 252 -197 223 -311 -7 -27 -72 -105 -87 -105 -5 0 -9 13
-9 30 0 64 -99 125 -163 101 -32 -12 -72 -62 -87 -106 -24 -74 8 -138 91 -180
135 -69 298 9 366 174 30 74 31 179 3 253 -47 123 -186 261 -310 309 -74 28
-190 35 -255 15 -27 -8 -50 -14 -52 -13 -1 2 7 22 18 45 28 57 32 173 7 199
-17 16 -18 16 -18 -3z"/>
<path d="M3596 3077 c-83 -9 -182 -49 -321 -132 -78 -46 -708 -456 -723 -470
-3 -3 2 -25 23 -93 3 -8 20 -3 55 19 64 39 277 137 402 183 102 38 212 67 418
111 69 15 160 40 202 56 67 26 86 39 140 98 69 75 123 163 114 187 -15 39
-158 58 -310 41z"/>
<path d="M3352 2599 c-46 -5 -129 -20 -184 -34 -114 -28 -444 -143 -528 -184
-54 -26 -55 -28 -61 -76 -3 -28 -5 -51 -4 -53 2 -2 45 8 96 22 208 56 471 71
714 41 157 -19 292 -19 361 1 52 15 204 107 204 123 0 31 -150 114 -252 140
-94 24 -237 32 -346 20z"/>
<path d="M1740 2542 c0 -5 7 -26 15 -45 34 -82 10 -244 -68 -446 -33 -88 -41
-121 -44 -196 -4 -89 -4 -90 27 -128 70 -82 156 -91 321 -32 192 69 261 87
354 92 70 4 99 2 129 -11 56 -23 59 -22 54 33 -6 57 -50 124 -103 157 l-34 20
29 45 c56 83 82 165 87 269 4 85 2 100 -19 140 -35 68 -89 94 -193 93 -100 -2
-190 -29 -273 -82 l-61 -40 -22 39 c-30 52 -91 92 -151 98 -29 3 -48 0 -48 -6z"/>
<path d="M2850 2263 c-63 -4 -239 -33 -265 -43 -13 -5 -25 -20 -28 -37 -4 -15
-9 -37 -12 -49 -6 -20 -3 -21 147 -21 223 0 372 -37 598 -145 69 -33 150 -69
180 -80 100 -35 287 -23 315 22 10 16 -37 83 -110 156 -155 154 -451 224 -825
197z"/>
<path d="M4323 2126 c-112 -53 -132 -170 -43 -258 30 -30 45 -38 74 -38 46 0
86 20 120 61 30 36 30 36 49 -12 18 -42 13 -80 -16 -139 -17 -35 -41 -57 -102
-98 -182 -122 -232 -172 -293 -297 -45 -90 -79 -236 -54 -235 4 1 23 26 42 56
55 88 212 232 358 327 71 47 142 102 159 123 36 46 69 123 77 181 12 86 -31
210 -96 275 -51 51 -88 68 -161 74 -52 4 -70 1 -114 -20z"/>
<path d="M2496 2036 c-15 -26 -26 -49 -24 -51 2 -2 44 -13 94 -24 198 -43 323
-108 476 -249 167 -153 258 -207 367 -218 l61 -7 0 31 c0 108 -121 273 -275
374 -172 113 -356 175 -551 185 l-120 6 -28 -47z"/>
<path d="M3649 1627 c-46 -31 -44 -51 5 -55 51 -4 91 -33 116 -82 27 -52 25
-94 -6 -182 -96 -267 -282 -498 -514 -637 -30 -18 -56 -35 -58 -36 -6 -6 53
-135 62 -135 33 0 339 191 455 284 141 114 301 328 301 404 0 32 -15 34 -41 6
-25 -27 -79 -60 -79 -48 0 4 12 39 26 78 33 89 37 222 9 277 -68 132 -186 186
-276 126z"/>
<path d="M2503 1620 c-87 -18 -189 -89 -228 -161 -35 -65 -42 -133 -20 -198
43 -131 165 -166 263 -76 33 30 37 38 37 85 0 47 -3 55 -37 86 -26 23 -47 34
-68 34 -16 0 -30 4 -30 8 0 11 60 67 87 81 63 32 177 -5 250 -80 272 -286 -54
-714 -567 -746 -219 -13 -419 62 -555 208 -79 86 -105 144 -105 236 0 152 61
238 183 257 39 6 60 -9 27 -19 -12 -4 -30 -26 -42 -50 -68 -139 118 -259 248
-160 89 68 96 192 16 285 -56 66 -102 85 -207 85 -77 0 -98 -4 -147 -27 -129
-60 -198 -166 -206 -316 -3 -49 1 -101 8 -130 34 -124 143 -277 265 -370 82
-62 225 -135 310 -158 78 -21 284 -30 369 -15 225 39 467 170 710 384 60 53
129 106 154 118 41 20 43 23 27 36 -28 20 -126 16 -181 -7 -26 -11 -48 -19
-50 -17 -2 1 1 20 6 42 16 67 11 168 -10 238 -46 149 -206 303 -355 342 -64
16 -88 17 -152 5z"/>
<path d="M422 1553 c-25 -46 -12 -104 34 -153 16 -17 25 -41 28 -79 14 -137
92 -201 256 -209 98 -5 176 13 299 69 35 16 66 27 68 25 15 -15 -184 -126
-271 -151 -66 -19 -198 -17 -219 4 -18 18 -27 13 -27 -14 0 -28 21 -53 69 -81
38 -22 40 -51 7 -91 -47 -56 -104 -153 -110 -188 -4 -20 -2 -51 4 -69 29 -88
157 -69 294 44 27 22 56 40 65 40 9 0 28 -19 42 -42 47 -79 116 -91 84 -15
-39 93 4 260 109 419 44 69 61 67 26 -2 -41 -82 -80 -221 -80 -288 0 -31 10
-87 22 -125 34 -104 103 -157 208 -157 25 0 48 -10 79 -35 47 -37 101 -46 143
-24 19 10 18 12 -20 35 -85 51 -186 223 -218 373 -32 150 -5 334 71 484 58
113 47 128 -55 77 -202 -102 -411 -120 -599 -51 -115 42 -250 139 -287 206
-11 19 -11 19 -22 -2z"/>
<path d="M4875 1523 c-228 -29 -395 -96 -563 -226 -83 -64 -222 -238 -222
-279 0 -14 15 -6 67 37 73 60 280 168 403 209 132 45 246 59 368 46 202 -20
329 -66 425 -153 148 -134 101 -310 -86 -324 -53 -4 -67 -2 -96 19 -51 34 -75
72 -76 118 0 22 -4 39 -10 37 -20 -6 -65 -110 -65 -151 1 -134 154 -266 308
-266 69 0 179 37 240 80 23 16 46 30 50 30 4 0 20 -20 36 -45 31 -49 99 -121
146 -155 l30 -21 -6 58 c-5 47 -1 74 22 143 37 112 38 221 3 295 -13 28 -25
55 -28 60 -2 6 3 4 13 -4 15 -13 22 -9 66 34 68 67 70 79 23 121 -134 120
-377 249 -557 294 -152 38 -375 58 -491 43z"/>
<path d="M5922 1070 l-53 -60 46 -53 c51 -59 116 -178 169 -312 90 -230 126
-303 185 -372 27 -32 32 -29 25 15 -3 22 -1 65 6 98 l12 58 35 -39 c90 -101
193 -200 245 -236 264 -181 590 -92 690 189 55 157 2 308 -134 378 -128 65
-256 -5 -265 -146 -5 -65 18 -110 68 -136 40 -20 113 -20 145 1 23 15 24 15
24 -14 0 -37 -31 -109 -59 -138 -51 -54 -160 -82 -246 -65 -165 33 -278 137
-489 447 -156 230 -323 445 -346 445 -3 0 -29 -27 -58 -60z"/>
<path d="M4050 914 c-243 -181 -471 -310 -733 -414 -31 -12 -59 -25 -61 -29
-3 -4 0 -59 6 -124 l11 -117 41 0 c23 0 85 5 140 10 155 15 457 22 494 11 39
-12 51 4 32 40 l-12 22 76 -6 c75 -7 139 -30 179 -66 17 -15 20 -14 33 4 18
23 11 75 -14 118 -35 59 -168 117 -267 117 -34 0 -164 -18 -255 -36 l-25 -4
25 11 c14 6 99 26 190 45 196 41 411 55 549 35 169 -25 345 -100 407 -174 59
-70 81 -171 49 -227 -36 -64 13 -68 57 -5 108 158 14 400 -193 500 -83 40
-229 61 -344 50 -41 -4 -75 -4 -75 -2 0 3 22 13 49 22 26 8 66 31 87 49 38 33
103 141 91 152 -3 4 -29 0 -57 -7 -41 -10 -69 -11 -149 -1 -83 11 -105 10
-140 -1 l-41 -15 0 45 c0 43 -13 83 -28 83 -4 0 -59 -39 -122 -86z"/>
<path d="M3075 574 c-162 -79 -349 -130 -575 -159 -107 -13 -147 -14 -278 -3
-120 9 -155 9 -164 0 -21 -21 4 -45 79 -74 187 -72 636 -123 971 -111 149 6
153 6 148 27 -2 12 -8 62 -11 111 -4 50 -9 93 -11 97 -3 4 -43 -7 -91 -23
-121 -41 -138 -35 -23 7 52 20 99 39 103 43 8 8 -41 132 -52 130 -3 0 -46 -20
-96 -45z"/>
</g>
</svg>
